<svg width="40" height="44" viewBox="0 0 40 44" fill="none" xmlns="http://www.w3.org/2000/svg">
<path d="M38.4287 2.53103L37.5073 1.60961C35.5109 -0.386798 32.1324 -0.386798 30.1359 1.60961L28.2931 3.45245C25.0681 1.91675 21.3824 1.30247 17.5432 1.76318C8.48255 2.83817 1.26476 10.056 0.189766 19.1166C-1.19237 31.2486 8.17541 41.5378 20.0003 41.5378C23.3789 41.5378 26.6038 40.77 29.3681 39.2343L32.7466 42.6128C32.9002 42.7664 33.0538 42.92 33.2073 42.92H33.3609H33.5145C33.668 42.92 33.668 42.92 33.8216 42.92C33.9752 42.92 33.9752 42.92 34.1288 42.92H34.2823H34.4359C34.5895 42.92 34.743 42.7664 34.8966 42.6128C35.0502 42.4593 35.2038 42.3057 35.2038 42.1521V41.9986V41.845V41.6914V34.4736C38.1216 30.9415 39.8109 26.488 39.8109 21.7273C39.8109 17.888 38.7359 14.5095 36.893 11.4381L38.4287 9.9024C40.4251 7.90599 40.4251 4.52744 38.4287 2.53103ZM35.3573 23.1094H36.893C36.4323 28.1772 33.668 32.6308 29.6752 35.395C29.0609 35.8557 28.4467 36.1629 27.8324 36.47C25.9895 37.3914 23.8396 38.1593 21.6896 38.3129V36.7772C21.6896 36.0093 20.9217 35.2415 20.1539 35.2415C19.386 35.2415 18.6182 36.0093 18.6182 36.7772V38.3129C10.479 37.545 4.02902 31.0951 3.26117 22.9559H4.79687C5.56472 22.9559 6.33257 22.188 6.33257 21.4202C6.33257 20.6523 5.56472 19.8845 4.79687 19.8845H3.1076C3.87545 11.8988 10.3254 5.44887 18.4646 4.68102V6.21672C18.4646 6.98457 19.2325 7.75242 20.0003 7.75242C20.7682 7.75242 21.536 6.98457 21.536 6.21672V4.68102C29.6752 5.44887 36.1252 11.8988 36.893 20.038H35.3573C34.5895 20.038 33.8216 20.8059 33.8216 21.5737C33.8216 22.3416 34.5895 23.1094 35.3573 23.1094Z" fill="#FCC822"/>
<path d="M20.0002 7.75242V1.60961C17.0824 1.60961 14.1646 2.22389 11.7075 3.45245L9.86462 1.60961C7.86821 -0.386798 4.48967 -0.386798 2.49325 1.60961L1.57183 2.53103C-0.424577 4.52745 -0.424577 7.90599 1.57183 9.9024L2.95396 11.2845C1.11112 14.3559 0.0361328 17.7345 0.0361328 21.5737C0.0361328 26.3344 1.7254 30.7879 4.64324 34.32V41.5378C4.64324 41.6914 4.64324 41.845 4.64324 41.9986V42.1521C4.64324 42.1521 4.64324 42.1521 4.64324 42.3057C4.64324 42.4593 4.79681 42.6128 4.95038 42.7664C5.10395 42.92 5.25752 42.92 5.41109 43.0735C5.41109 43.0735 5.41109 43.0735 5.56466 43.0735H5.71823C5.8718 43.0735 6.02537 43.0735 6.17894 43.0735C6.33251 43.0735 6.48608 43.0735 6.63965 43.0735H6.79322C6.79322 43.0735 6.79322 43.0735 6.94679 43.0735C7.10036 43.0735 7.25393 42.92 7.4075 42.7664L10.786 39.3879C13.5503 40.9236 16.7753 41.6914 20.1538 41.6914V35.5486C19.386 35.5486 18.6181 36.3165 18.6181 37.0843V38.62C16.3146 38.4664 14.3182 37.8522 12.4753 36.7772C11.861 36.47 11.2467 36.0093 10.6325 35.7022C6.63965 32.9379 3.87539 28.4844 3.41467 23.4166H4.95038C5.71823 23.4166 6.48608 22.6487 6.48608 21.8809C6.48608 21.113 5.71823 20.3452 4.95038 20.3452H3.10753C3.87539 11.8988 10.3253 5.44887 18.4645 4.68102V6.21672C18.4645 6.98457 19.2324 7.75242 20.0002 7.75242Z" fill="#FCC822"/>
</svg>
