<svg width="367" height="372" viewBox="0 0 367 372" fill="none" xmlns="http://www.w3.org/2000/svg">
<path d="M203.828 41.5948C203.828 41.5948 163.948 42.8851 153.854 61.2708C144.024 79.1765 162.705 112.822 162.705 112.822C162.705 112.822 189.994 157.73 182.471 186.591C169.629 235.861 87.659 184.958 58.3896 226.62C25.7934 273.018 76.1611 370.726 76.1611 370.726" stroke="#FFC819" stroke-width="0.527835"/>
<path d="M334.424 346.061C334.424 346.061 361.712 316.949 355.848 296.811C350.138 277.199 313.137 266.617 313.137 266.617C313.137 266.617 262.086 254.158 246.998 228.432C221.24 184.512 315.195 162.544 306.432 112.388C296.673 56.531 191.968 23.0563 191.968 23.0563" stroke="#FCC822" stroke-width="0.791752"/>
</svg>
